# xmcd
#
# Track frame offsets: 
#        150
#        8514
#        19142
#        37974
#        55589
#        64091
#        76433
#        88277
#        102154
#        119261
#        137541
#        149428
#        164340
#        177169
#        189703
#
# Disc length: 2692 seconds
#
# Revision: 1
# Processed by: cddbd v1.5PL3 Copyright (c) Steve Scherf et al.
# Submitted via: ExactAudioCopy v0.90b4
#
DISCID=c10a820f
DTITLE=Johnny Cash - 30 Essential Hits - Disc 2
DYEAR=2001
DGENRE=Country
TTITLE0=Guess Things Happen That Way
TTITLE1=Daddy Sang Bass
TTITLE2=Sunday Morning Coming Down
TTITLE3=Were You There (When They Crucified My Lord)
TTITLE4=The Rebel-Johnny Yuma
TTITLE5=Understand Your Man
TTITLE6=Flesh and Blood
TTITLE7=Highwayman
TTITLE8=(Ghost) Riders In The Sky
TTITLE9=One Piece At A Time
TTITLE10=I Still Miss Someone
TTITLE11=There Ain't No Good Chain Gang
TTITLE12=(There'll Be) Peace In The Vally
TTITLE13=Jackson
TTITLE14=Folsom Prison Blues (Live)
EXTD=YEAR: 2001 ID3G: 2
EXTT0=
EXTT1=
EXTT2=
EXTT3=
EXTT4=
EXTT5=
EXTT6=
EXTT7=
EXTT8=
EXTT9=
EXTT10=
EXTT11=
EXTT12=
EXTT13=
EXTT14=
PLAYORDER=
